G04 CAM350/DFMSTREAM V11.0 (Build 715) Date:  Fri Nov 02 14:57:18 2018 *
G04 Database: W:\PC Boards\VALTRONIC TECHNOLOGIES\VTC22567\CHECKPLOTS\MODIFIED.cam *
G04 Layer 18: MaskTop_DI *
%FSLAX25Y25*%
%MOIN*%
%SFA1.000B1.000*%

%MIA0B0*%
%IPPOS*%
%ADD11C,0.00098*%
%ADD12C,0.00001*%
%ADD13C,0.00010*%
%ADD14C,0.00197*%
%ADD15C,0.16200*%
%ADD19C,0.07087*%
%ADD70C,0.06400*%
%ADD71C,0.04394*%
%ADD21C,0.01378*%
%ADD22C,0.02165*%
%ADD40C,0.09000*%
%ADD41R,1.27953X0.59645*%
%ADD42R,1.27953X0.23646*%
%ADD43R,1.27953X0.32283*%
%ADD44R,0.02756X0.03543*%
%ADD45R,0.03543X0.02756*%
%ADD46R,0.02756X0.04331*%
%ADD47R,0.02362X0.03346*%
%ADD48R,0.02362X0.01575*%
%ADD49R,0.04331X0.03150*%
%ADD50R,0.03346X0.02362*%
%ADD51R,0.04331X0.02756*%
%ADD52R,0.03150X0.04331*%
%ADD53R,0.02165X0.04134*%
%ADD54R,0.01969X0.01969*%
%ADD55R,0.04331X0.01969*%
%ADD56R,0.02953X0.04331*%
%ADD57R,0.01378X0.03150*%
%ADD58R,0.09843X0.06890*%
%ADD59R,0.06496X0.04134*%
%ADD60R,0.03937X0.03937*%
%ADD61R,0.05906X0.01969*%
%ADD62R,0.06496X0.01575*%
%ADD63R,0.01969X0.01772*%
%ADD64R,0.01772X0.01969*%
%ADD65R,0.01575X0.02362*%
%ADD66R,0.09843X0.08268*%
%ADD67R,0.02756X0.02362*%
%ADD68R,0.03150X0.01378*%
%ADD69R,0.28543X0.28543*%
%ADD74R,0.01969X0.03740*%
%ADD75R,0.03543X0.03543*%
%ADD76R,0.05906X0.05906*%
%ADD77R,0.04134X0.02165*%
%ADD78R,0.03740X0.01969*%
%ADD79R,0.04134X0.06496*%
%ADD80R,0.06890X0.09843*%
%ADD81R,0.02756X0.08268*%
%ADD82R,0.05906X0.02165*%
%ADD83R,0.06000X0.06000*%
%LNMaskTop_DI*%
%LPD*%
G36*
X302685Y300140D02*
G01Y303093D01*
X302688Y303132*
X302697Y303160*
X302700Y303169*
X302718Y303203*
X302743Y303233*
X306228Y306718*
Y312066*
X302743Y315552*
X302718Y315582*
X302700Y315616*
X302697Y315624*
X302688Y315653*
X302686Y315672*
X302685Y315691*
Y318644*
X302688Y318683*
X302700Y318720*
X302718Y318754*
X302743Y318784*
X302772Y318809*
X302807Y318827*
X302844Y318838*
X302882Y318842*
X305835*
X305874Y318838*
X305911Y318827*
X305945Y318809*
X305975Y318784*
X309321Y315437*
X309346Y315407*
X309364Y315373*
X309367Y315365*
X309376Y315336*
X309378Y315317*
X309379Y315298*
Y303487*
X309376Y303448*
X309364Y303411*
X309346Y303377*
X309321Y303347*
X305975Y300000*
X305945Y299976*
X305911Y299957*
X305902Y299955*
X305874Y299946*
X305854Y299944*
X305835Y299943*
X302882*
X302844Y299946*
X302807Y299957*
X302772Y299976*
X302743Y300000*
X302718Y300030*
X302700Y300065*
X302688Y300102*
X302685Y300140*
G37*
G36*
X290480Y303487D02*
G01Y315297D01*
Y315298*
X290483Y315336*
X290495Y315373*
X290513Y315408*
X290538Y315437*
X293884Y318784*
X293914Y318809*
X293948Y318827*
X293957Y318830*
X293985Y318838*
X294024Y318842*
X296977*
X297015Y318838*
X297052Y318827*
X297087Y318809*
X297117Y318784*
X297141Y318754*
X297159Y318720*
X297171Y318683*
X297174Y318644*
Y315691*
X297171Y315653*
X297162Y315624*
X297159Y315616*
X297141Y315581*
X297117Y315552*
X293631Y312066*
Y306718*
X297117Y303233*
X297141Y303203*
X297159Y303168*
X297162Y303160*
X297171Y303131*
X297173Y303112*
X297174Y303093*
Y300140*
X297171Y300102*
X297159Y300065*
X297141Y300030*
X297117Y300000*
X297087Y299976*
X297052Y299957*
X297015Y299946*
X296977Y299943*
X294024*
X293985Y299946*
X293948Y299957*
X293914Y299976*
X293884Y300000*
X290538Y303347*
X290513Y303377*
X290495Y303411*
X290492Y303420*
X290483Y303448*
X290480Y303487*
G37*
G36*
X215697Y298738D02*
G01X343650D01*
Y298739*
Y340077*
X343945Y339374*
X344339Y338882*
X344831Y338587*
X345327Y338400*
X347556*
X348178Y338489*
X348867Y338882*
X349359Y339473*
X349556Y340400*
X349555Y298400*
X349359Y299217*
X348965Y299807*
X348276Y300300*
X347556Y300400*
X345650*
X345028Y300300*
X344437Y300004*
X343945Y299414*
X343650Y298738*
Y298093*
X343630Y298073*
X343827Y297483*
X344221Y296892*
X344713Y296597*
X345304Y296400*
X346091*
Y151223*
X345993Y150731*
X345697Y150337*
X345304Y150042*
X344811Y149943*
X212429*
X211937Y150042*
X211544Y150337*
X211248Y150829*
X211150Y151223*
Y224686*
X212331*
X212626Y224746*
X212922Y224943*
X213020Y225140*
X213119Y225473*
Y263269*
X213020Y263624*
X212922Y263821*
X212626Y264018*
X212332Y264056*
X212331*
X211150*
Y296400*
X214103*
X214792Y296695*
X215284Y297089*
X215579Y297876*
X215697Y298738*
G37*
G36*
X185187Y299669D02*
G01Y339144D01*
X185481Y338587*
X185925Y338407*
X213690*
X213697Y338400*
X214020*
X214021*
X215008Y338882*
X215697Y340077*
Y298738*
X215107Y299807*
X214036Y300400*
X214035*
X185918*
X185481Y300201*
X185187Y299669*
G37*
G54D11*
X346150Y296400D03*
G54D14*
X213697Y338400D03*
G54D41*
X279674Y508482D03*
G54D42*
Y425522D03*
G54D43*
Y356219D03*
G54D44*
X232556Y449173D03*
X239249D03*
X229596Y474185D03*
X222903D03*
X328444Y474839D03*
X335137D03*
G54D45*
X337782Y443822D03*
Y450515D03*
G54D46*
X252685Y310573D03*
X258197D03*
X252685Y305258D03*
X258197D03*
X332311Y454768D03*
X337823D03*
X230540Y443743D03*
X236052D03*
X328768Y380750D03*
X334280D03*
X282213Y324156D03*
X287725D03*
X282213Y329176D03*
X287725D03*
X282410Y336361D03*
X287922D03*
X309575Y329668D03*
X315087D03*
G54D47*
X244811Y301321D03*
X248748D03*
Y305455D03*
X244811D03*
X248748Y309491D03*
X244811D03*
X314201Y450632D03*
X318138D03*
X311642Y442365D03*
X315579D03*
X304162D03*
X308099D03*
X306524Y452010D03*
X302587D03*
X289890Y450239D03*
X285953D03*
Y444333D03*
X289890D03*
Y440101D03*
X285953D03*
X278276Y472581D03*
X282213D03*
X278276Y468546D03*
X282213D03*
X278276Y464412D03*
X282213D03*
X270796Y454176D03*
X274733D03*
X249044Y449550D03*
X245107D03*
X275323Y411164D03*
X279260D03*
X275323Y407030D03*
X279260D03*
X255540Y410869D03*
X251603D03*
X218433Y401223D03*
X222370D03*
X238512Y375435D03*
X234575D03*
X262922Y389806D03*
X266859D03*
X267351Y374845D03*
X271288D03*
X340973Y403880D03*
X337036D03*
Y399943D03*
X340973D03*
X337036Y396006D03*
X340973D03*
X332508Y395022D03*
X328571D03*
Y389313D03*
X332508D03*
X328571Y385180D03*
X332508D03*
X329063Y375731D03*
X333000D03*
X274339Y328487D03*
X278276D03*
X244811Y313526D03*
X240874D03*
X266662Y311754D03*
X262725D03*
X266662Y307227D03*
X262725D03*
Y302699D03*
X266662D03*
X323158Y323369D03*
X319221D03*
X325126Y303290D03*
X321189D03*
X356819Y338526D03*
X360756D03*
X364693Y333802D03*
X360756D03*
X356819D03*
X352882D03*
X364693Y306439D03*
X360756D03*
X352882D03*
X356819D03*
Y300140D03*
X360756D03*
G54D48*
X247469Y393644D03*
Y391676D03*
Y389707D03*
X250422D03*
Y391676D03*
Y393644D03*
X235067Y383113D03*
Y381144D03*
Y379176D03*
X238020D03*
Y381144D03*
Y383113D03*
X238807Y321006D03*
Y319038D03*
Y317069D03*
X241760D03*
Y319038D03*
Y321006D03*
X248552Y320022D03*
Y318054D03*
Y316085D03*
X253670D03*
Y318054D03*
Y320022D03*
X295796Y443250D03*
Y441282D03*
Y439313D03*
X298748D03*
Y441282D03*
Y443250D03*
G54D49*
X328315Y460180D03*
Y467660D03*
X336307Y463920D03*
X322902Y441085D03*
Y448565D03*
X330894Y444825D03*
X249004Y461361D03*
Y453880D03*
X241012Y457620D03*
G54D50*
X309969Y452601D03*
Y448664D03*
X295107Y450731D03*
Y446794D03*
X287134Y466774D03*
Y470711D03*
X261642Y439609D03*
Y443546D03*
X274733Y476420D03*
Y472483D03*
X270697Y476420D03*
Y472483D03*
X266268Y473270D03*
Y469333D03*
X237626Y466577D03*
Y462640D03*
X233493Y466577D03*
Y462640D03*
X230048Y395514D03*
Y399451D03*
X226111D03*
Y395514D03*
X222370Y404668D03*
Y408605D03*
X218433D03*
Y404668D03*
X221583Y393841D03*
Y397778D03*
X230048Y386951D03*
Y390888D03*
X226111Y386951D03*
Y390888D03*
X221583D03*
Y386951D03*
X234378D03*
Y390888D03*
X255048Y393644D03*
Y389707D03*
X259083D03*
Y393644D03*
X265973Y382227D03*
Y378290D03*
X286248Y392955D03*
Y389018D03*
Y395908D03*
Y399845D03*
Y404077D03*
Y408014D03*
X341170Y407522D03*
Y411459D03*
X337233D03*
Y407522D03*
X333197D03*
Y411459D03*
X329260Y407522D03*
Y411459D03*
X340481Y392561D03*
Y388624D03*
X336347D03*
Y392561D03*
X276898Y337345D03*
Y333408D03*
X242056Y333802D03*
Y337739D03*
Y326912D03*
Y330849D03*
X238119Y326912D03*
Y330849D03*
Y333802D03*
Y337739D03*
X233886D03*
Y333802D03*
Y326912D03*
Y330849D03*
X229949Y337739D03*
Y333802D03*
X237134Y313132D03*
Y309195D03*
X307213Y333998D03*
Y337935D03*
X253498Y462246D03*
Y458309D03*
X237331Y471892D03*
Y475829D03*
G54D21*
X304654Y448565D03*
X302685D03*
X300717D03*
X298748Y446597D03*
X300717D03*
X302685D03*
X304654D03*
X298748Y448565D03*
X284575Y456341D03*
X278670Y458309D03*
X280638D03*
X282607D03*
X284575D03*
X282607Y456341D03*
X280638D03*
X278670D03*
X271977Y465002D03*
Y463034D03*
Y461065D03*
X273945Y459097D03*
Y461065D03*
Y463034D03*
Y465002D03*
X271977Y459097D03*
G54D51*
X218729Y470908D03*
Y476420D03*
X232410Y318250D03*
Y323762D03*
Y309392D03*
Y314904D03*
X311150Y319628D03*
Y325140D03*
X340284Y322187D03*
Y316676D03*
X321091Y468054D03*
Y462542D03*
X340087Y469235D03*
Y474746D03*
G54D52*
X226406Y458743D03*
X218926D03*
X222666Y466735D03*
X218926Y450298D03*
X226406D03*
X222666Y442306D03*
X257902Y460770D03*
X265382D03*
X261642Y452778D03*
G54D53*
X228079Y410475D03*
X230048Y404372D03*
X226111D03*
G54D54*
X224831Y411557D03*
X220304D03*
G54D55*
X220599Y383113D03*
Y380554D03*
Y377994D03*
Y375435D03*
X230441D03*
Y377994D03*
Y380554D03*
Y383113D03*
X259772Y323959D03*
Y321400D03*
Y318841D03*
Y316282D03*
X269615D03*
Y318841D03*
Y321400D03*
Y323959D03*
G54D56*
X246386Y337148D03*
X253867D03*
Y326912D03*
X250126D03*
X246386D03*
X317449Y318644D03*
X324930D03*
Y308408D03*
X321189D03*
X317449D03*
G54D57*
X220599Y328093D03*
X222567D03*
X224536D03*
X226504D03*
Y317069D03*
X224536D03*
X222567D03*
X220599D03*
X306622Y410376D03*
X292843D03*
X294811D03*
X296780D03*
X298748D03*
X300717D03*
X302685D03*
X304654D03*
X308591D03*
X310559D03*
X312528D03*
X314496D03*
X316465D03*
X318433D03*
X320402D03*
X322370D03*
Y375731D03*
X320402D03*
X318433D03*
X316465D03*
X314496D03*
X312528D03*
X310559D03*
X308591D03*
X304654D03*
X302685D03*
X300717D03*
X298748D03*
X296780D03*
X294811D03*
X292843D03*
X306622D03*
G54D58*
X223552Y322581D03*
G54D54*
X222567Y307817D03*
Y312345D03*
X226701Y312246D03*
Y307719D03*
X330048Y305652D03*
Y310180D03*
X333591D03*
Y305652D03*
X329260Y335081D03*
Y330554D03*
X333000Y330652D03*
Y335180D03*
G54D59*
X284181Y319038D03*
Y311951D03*
X320233Y329709D03*
Y336796D03*
X339496Y309392D03*
Y302306D03*
X332811Y318225D03*
Y325311D03*
X339496Y330061D03*
Y337148D03*
G54D19*
X380067Y149512D03*
Y566835D03*
X179280D03*
Y149512D03*
G54D60*
X313926Y302662D03*
X230737Y469703D03*
G54D61*
X260559Y466774D03*
Y469333D03*
Y471892D03*
Y474451D03*
X243237D03*
Y471892D03*
Y469333D03*
Y466774D03*
G54D62*
X292744Y476321D03*
Y473762D03*
Y471203D03*
Y468644D03*
Y466085D03*
Y463526D03*
Y460967D03*
Y458408D03*
X314792D03*
Y460967D03*
Y463526D03*
Y468644D03*
Y471203D03*
Y473762D03*
Y476321D03*
Y466085D03*
G54D63*
X282410Y444333D03*
X272961D03*
G54D64*
X273847Y439609D03*
X276406D03*
X278965D03*
X281524D03*
Y449057D03*
X278965D03*
X276406D03*
X273847D03*
G54D65*
X268729Y448861D03*
X266760D03*
X264792D03*
Y443743D03*
X266760D03*
X268729D03*
G54D66*
X277292Y384589D03*
Y400337D03*
G54D67*
X336642Y375731D03*
X340579D03*
G54D68*
X324930Y392069D03*
Y378290D03*
Y380258D03*
Y382227D03*
Y384195D03*
Y386164D03*
Y388132D03*
Y390101D03*
Y394038D03*
Y396006D03*
Y397975D03*
Y399943D03*
Y401912D03*
Y403880D03*
Y405849D03*
Y407817D03*
X290284D03*
Y405849D03*
Y403880D03*
Y401912D03*
Y399943D03*
Y397975D03*
Y396006D03*
Y394038D03*
Y390101D03*
Y388132D03*
Y386164D03*
Y384195D03*
Y382227D03*
Y380258D03*
Y378290D03*
Y392069D03*
X304457Y323762D03*
Y325731D03*
Y327699D03*
Y329668D03*
X293433D03*
Y327699D03*
Y325731D03*
Y323762D03*
G54D69*
X307607Y393054D03*
G54D74*
X268040Y402798D03*
X265481D03*
X262922D03*
Y394136D03*
X268040D03*
G54D75*
X229924Y302729D03*
X221066D03*
G54D76*
X276307Y312148D03*
Y323172D03*
G54D77*
X234575Y302896D03*
X240678Y304865D03*
Y300928D03*
G54D78*
X260363Y329668D03*
Y332227D03*
Y334786D03*
X269024D03*
Y332227D03*
Y329668D03*
G54D79*
X275323Y305061D03*
X282410D03*
G54D80*
X298945Y326715D03*
G54D81*
X218040Y334983D03*
X226307D03*
G54D82*
X243335Y375534D03*
Y378093D03*
Y380652D03*
Y383211D03*
X260658D03*
Y380652D03*
Y378093D03*
Y375534D03*
X253374Y406538D03*
Y403979D03*
Y401420D03*
Y398861D03*
X236052D03*
Y401420D03*
Y403979D03*
Y406538D03*
G54D70*
X239697Y557304D03*
X229697D03*
X339697Y547304D03*
X329697Y557304D03*
X229697Y547304D03*
X289697D03*
X279697D03*
Y557304D03*
X299697Y547304D03*
X319697D03*
X329697D03*
X299697Y557304D03*
X309697Y547304D03*
Y557304D03*
X269697Y547304D03*
Y557304D03*
X259697Y547304D03*
X249697Y557304D03*
Y547304D03*
X259697Y557304D03*
X239697Y547304D03*
X289697Y557304D03*
X219697Y547304D03*
Y557304D03*
X339697D03*
X319697D03*
G54D15*
X399752Y129827D03*
Y586520D03*
X159595D03*
Y129827D03*
G54D71*
X169202Y325809D03*
Y338609D03*
X182402D03*
Y325809D03*
Y313009D03*
X169202D03*
Y300209D03*
X182402D03*
X352341Y313000D03*
Y325800D03*
X358941Y319400D03*
X365541Y325800D03*
Y313000D03*
Y338600D03*
X352341D03*
Y300200D03*
X365541D03*
X175800Y319407D03*
G54D22*
X253867Y326912D03*
X233886Y330849D03*
X238217Y326912D03*
X287134Y466774D03*
Y470711D03*
X233886Y326912D03*
Y337050D03*
X232311Y309392D03*
G54D40*
X427350Y94800D03*
X132050D03*
X427350Y621600D03*
X132050D03*
G54D83*
X407350Y94800D03*
X152050D03*
X407350Y621600D03*
X152050D03*
X172050Y94800D03*
Y621600D03*
X387350Y94800D03*
Y621600D03*
G54D12*
X211150Y264056D02*
G01Y296400D01*
Y264056D02*
G01Y296400D01*
X213697D02*
G01X211150D01*
G54D13*
X213697D02*
G01X211150D01*
M02*
