G04 CAM350/DFMSTREAM V11.0 (Build 715) Date:  Fri Nov 02 14:57:20 2018 *
G04 Database: W:\PC Boards\VALTRONIC TECHNOLOGIES\VTC22567\CHECKPLOTS\MODIFIED.cam *
G04 Layer 18: MaskBot_DI *
%FSLAX25Y25*%
%MOIN*%
%SFA1.000B1.000*%

%MIA0B0*%
%IPPOS*%
%ADD11C,0.00098*%
%ADD12C,0.00001*%
%ADD13C,0.00010*%
%ADD14C,0.00197*%
%ADD15C,0.16200*%
%ADD19C,0.07087*%
%ADD70C,0.06400*%
%ADD71C,0.04394*%
%ADD40C,0.09000*%
%ADD41R,1.27953X0.59645*%
%ADD42R,1.27953X0.23646*%
%ADD43R,1.27953X0.32283*%
%ADD47R,0.02362X0.03346*%
%ADD50R,0.03346X0.02362*%
%ADD83R,0.06000X0.06000*%
%LNMaskBot_DI*%
%LPD*%
G36*
X215697Y298738D02*
G01X343650D01*
Y298739*
Y340077*
X343945Y339374*
X344339Y338882*
X344831Y338587*
X345327Y338400*
X347556*
X348178Y338489*
X348867Y338882*
X349359Y339473*
X349556Y340400*
X349555Y298400*
X349359Y299217*
X348965Y299807*
X348276Y300300*
X347556Y300400*
X345650*
X345028Y300300*
X344437Y300004*
X343945Y299414*
X343650Y298738*
Y298093*
X343630Y298073*
X343827Y297483*
X344221Y296892*
X344713Y296597*
X345304Y296400*
X346091*
Y151223*
X345993Y150731*
X345697Y150337*
X345304Y150042*
X344811Y149943*
X212429*
X211937Y150042*
X211544Y150337*
X211248Y150829*
X211150Y151223*
Y224686*
X212331*
X212626Y224746*
X212922Y224943*
X213020Y225140*
X213119Y225473*
Y263269*
X213020Y263624*
X212922Y263821*
X212626Y264018*
X212332Y264056*
X212331*
X211150*
Y296400*
X214103*
X214792Y296695*
X215284Y297089*
X215579Y297876*
X215697Y298738*
G37*
G36*
X185187Y299669D02*
G01Y339144D01*
X185481Y338587*
X185925Y338407*
X213690*
X213697Y338400*
X214020*
X214021*
X215008Y338882*
X215697Y340077*
Y298738*
X215107Y299807*
X214036Y300400*
X214035*
X185918*
X185481Y300201*
X185187Y299669*
G37*
G54D11*
X346150Y296400D03*
G54D14*
X213697Y338400D03*
G54D41*
X279674Y508482D03*
G54D42*
Y425522D03*
G54D43*
Y356219D03*
G54D47*
X169221Y305652D03*
X173158D03*
X173945Y300140D03*
X177882D03*
X181819Y305652D03*
X177882D03*
X173748Y338526D03*
X177685D03*
X169811Y333014D03*
X173748D03*
X181622D03*
X177685D03*
G54D50*
X175914Y315101D03*
Y311164D03*
G54D19*
X380067Y149512D03*
Y566835D03*
X179280D03*
Y149512D03*
G54D70*
X239697Y557304D03*
X229697D03*
X339697Y547304D03*
X329697Y557304D03*
X229697Y547304D03*
X289697D03*
X279697D03*
Y557304D03*
X299697Y547304D03*
X319697D03*
X329697D03*
X299697Y557304D03*
X309697Y547304D03*
Y557304D03*
X269697Y547304D03*
Y557304D03*
X259697Y547304D03*
X249697Y557304D03*
Y547304D03*
X259697Y557304D03*
X239697Y547304D03*
X289697Y557304D03*
X219697Y547304D03*
Y557304D03*
X339697D03*
X319697D03*
G54D15*
X399752Y129827D03*
Y586520D03*
X159595D03*
Y129827D03*
G54D71*
X169202Y325809D03*
Y338609D03*
X182402D03*
Y325809D03*
Y313009D03*
X169202D03*
Y300209D03*
X182402D03*
X352341Y313000D03*
Y325800D03*
X358941Y319400D03*
X365541Y325800D03*
Y313000D03*
Y338600D03*
X352341D03*
Y300200D03*
X365541D03*
X175800Y319407D03*
G54D40*
X427350Y94800D03*
X132050D03*
X427350Y621600D03*
X132050D03*
G54D83*
X407350Y94800D03*
X152050D03*
X407350Y621600D03*
X152050D03*
X172050Y94800D03*
Y621600D03*
X387350Y94800D03*
Y621600D03*
G54D12*
X211150Y264056D02*
G01Y296400D01*
Y264056D02*
G01Y296400D01*
X213697D02*
G01X211150D01*
G54D13*
X213697D02*
G01X211150D01*
M02*
