G04 CAM350/DFMSTREAM V11.0 (Build 715) Date:  Fri Nov 02 14:57:21 2018 *
G04 Database: W:\PC Boards\VALTRONIC TECHNOLOGIES\VTC22567\CHECKPLOTS\MODIFIED.cam *
G04 Layer 18: SILKBOT *
%FSLAX25Y25*%
%MOIN*%
%SFA1.000B1.000*%

%MIA0B0*%
%IPPOS*%
%ADD10C,0.01000*%
%ADD23C,0.00710*%
%ADD160C,0.00010*%
%ADD164C,0.00105*%
%ADD165C,0.00800*%
%ADD166C,0.00105*%
%ADD167C,0.00105*%
%ADD168C,0.00700*%
%ADD169C,0.00106*%
%LNSILKBOT*%
%LPD*%
G54D164*
X323550Y409490D03*
G54D10*
X318550Y391990D03*
G54D167*
X311660Y406505D03*
G54D10*
X307610Y392330D03*
G54D23*
G01X296084Y400805D02*
X300350D01*
X297100Y396337D02*
X296694Y396540D01*
X296288Y396946D01*
X296084Y397352D01*
Y398165D01*
X296288Y398571D01*
X296694Y398977D01*
X297100Y399180D01*
X297709Y399383D01*
X298725D01*
X299334Y399180D01*
X299741Y398977D01*
X300147Y398571D01*
X300350Y398165D01*
Y397352D01*
X300147Y396946D01*
X299741Y396540D01*
X299334Y396337D01*
X296084Y394915D02*
X300350D01*
G54D165*
X316675Y405547D02*
G01X316175Y406032D01*
X315925Y406759*
Y407729*
X316175Y408457*
X316675Y408942*
X317175*
X317675Y408699*
X317925Y408457*
X318175Y407972*
X318675Y406517*
X318925Y406032*
X319175Y405789*
X319675Y405547*
X320425*
X320925Y406032*
X321175Y406759*
Y407729*
X320925Y408457*
X320425Y408942*
X315925Y403849D02*
G01X321175D01*
X315925D02*
G01Y400697D01*
X318425Y403849D02*
G01Y401909D01*
X321175Y403849D02*
G01Y400697D01*
X315925Y399242D02*
G01X321175D01*
X315925D02*
G01Y397059D01*
X316175Y396332*
X316425Y396089*
X316925Y395847*
X317425*
X317925Y396089*
X318175Y396332*
X318425Y397059*
Y399242*
Y397544D02*
G01X321175Y395847D01*
X315925Y394149D02*
G01X321175D01*
X315925D02*
G01X321175Y390754D01*
X315925D02*
G01X321175D01*
X315925Y387602D02*
G01X316175Y388087D01*
X316675Y388572*
X317175Y388814*
X317925Y389057*
X319175*
X319925Y388814*
X320425Y388572*
X320925Y388087*
X321175Y387602*
Y386632*
X320925Y386147*
X320425Y385662*
X319925Y385419*
X319175Y385177*
X317925*
X317175Y385419*
X316675Y385662*
X316175Y386147*
X315925Y386632*
Y387602*
G54D166*
X313550Y409490D02*
G01X323550D01*
Y374490*
X313550*
Y409490*
G54D168*
X305487Y405863D02*
G01X309740D01*
X305487D02*
G01Y404488D01*
X305690Y403899*
X306095Y403506*
X306500Y403310*
X307107Y403113*
X308120*
X308727Y403310*
X309132Y403506*
X309537Y403899*
X309740Y404488*
Y405863*
X305487Y400756D02*
G01X309740Y402328D01*
X305487Y400756D02*
G01X309740Y399185D01*
X308322Y401738D02*
G01Y399774D01*
X305487Y397417D02*
G01X309740D01*
X305487Y398792D02*
G01Y396042D01*
Y395060D02*
G01X309740D01*
X305487D02*
G01Y392506D01*
X307512Y395060D02*
G01Y393489D01*
X309740Y395060D02*
G01Y392506D01*
G54D169*
X303560Y406505D02*
G01X311660D01*
Y378155*
X303560*
Y406505*
G54D160*
X307610Y392330D02*
G01X304370D01*
X307610D02*
G01Y389058D01*
Y392330D02*
G01Y395570D01*
X310850Y392330D02*
G01X307610D01*
M02*
