M48
INCH
VER,1
FMAT,2
T01C0.02
T02C0.036
%
T01
X016920Y030021
X016920Y031301
X017580Y031941
X016920Y032581
X016920Y033861
X018240Y033861
X018240Y032581
X018240Y031301
X018240Y030021
X035234Y030020
X035234Y031300
X035894Y031940
X036554Y031300
X036554Y030020
X036554Y032580
X036554Y033860
X035234Y033860
X035234Y032580
T02
X021970Y054730
X022970Y054730
X023970Y054730
X024970Y054730
X025970Y054730
X026970Y054730
X027970Y054730
X028970Y054730
X029970Y054730
X030970Y054730
X031970Y054730
X032970Y054730
X033970Y054730
X033970Y055730
X032970Y055730
X031970Y055730
X030970Y055730
X029970Y055730
X028970Y055730
X027970Y055730
X026970Y055730
X025970Y055730
X024970Y055730
X023970Y055730
X022970Y055730
X021970Y055730
M30
