M48
INCH
VER,1
FMAT,2
T01C0.001
%
T01
X022021Y031057
X022257Y031451
X022001Y032022
X022355Y032258
X022641Y032022
X022001Y032484
X022867Y032809
X023389Y032691
X023389Y033085
X023015Y033380
X023024Y033705
X023389Y033705
X023812Y033380
X023822Y032691
X023881Y032120
X023763Y031904
X023881Y031687
X024087Y031353
X024481Y031353
X024855Y032022
X025367Y031589
X025623Y031815
X025387Y032691
X023231Y030939
X028772Y032416
X029048Y033095
X029639Y033065
X029895Y032671
X030150Y032278
X029639Y032278
X030150Y033065
X031017Y033705
X032005Y033686
X031115Y032514
X031115Y031963
X031253Y037573
X031312Y038026
X030830Y038026
X030377Y038026
X030072Y037681
X030269Y037573
X029875Y037573
X029550Y038036
X029137Y038813
X029028Y039010
X029137Y039207
X029589Y039325
X029589Y038931
X030052Y038931
X030052Y039325
X030052Y039719
X029595Y039800
X029028Y039994
X028625Y040408
X028625Y040801
X029028Y040782
X029284Y040929
X029482Y041048
X029677Y040928
X029875Y041038
X030072Y040920
X030269Y041038
X030761Y040624
X031233Y040191
X031627Y040191
X031824Y039837
X032060Y040191
X032493Y039797
X032385Y039404
X032493Y039207
X032385Y039010
X032493Y038813
X031985Y038520
X032493Y038223
X032385Y038026
X032493Y037829
X032237Y037681
X032906Y037573
X032877Y038075
X033467Y038518
X033635Y038862
X034048Y038862
X034078Y039601
X034078Y039994
X034078Y040388
X034078Y040752
X033723Y040752
X033723Y041087
X032936Y041097
X032935Y040720
X032040Y040929
X031843Y041038
X031647Y040920
X031450Y041038
X031233Y039719
X031233Y039325
X031233Y038931
X030761Y038931
X030761Y039305
X030761Y039719
X031824Y039207
X030662Y037573
X028625Y038902
X027926Y040703
X028202Y041077
X028989Y044433
X029580Y044345
X030003Y044523
X029806Y045014
X030259Y045201
X030650Y044859
X030614Y044483
X030820Y044168
X031164Y044236
X031558Y044236
X031814Y045063
X032109Y046254
X030820Y045860
X030377Y046097
X030003Y045664
X029747Y046097
X029176Y045437
X028625Y045654
X028547Y046035
X028330Y046038
X028064Y046097
X028221Y046441
X028221Y046855
X028713Y046677
X028713Y047071
X029274Y047120
X029274Y046864
X027582Y046609
X027158Y046704
X026942Y046303
X027198Y045723
X027513Y045773
X027641Y045959
X027473Y045418
X027080Y045359
X026706Y044640
X028024Y045427
X028389Y045024
X027486Y047248
X027070Y047248
X026056Y047189
X026056Y046933
X026056Y046677
X026056Y047445
X023256Y044917
X022237Y040860
X022237Y040122
X023005Y039551
X023438Y039089
X023005Y038695
X023507Y038331
X023507Y037898
X023851Y037563
X024117Y038321
X023044Y037544
X022060Y037544
X022060Y038311
X022158Y039089
X026597Y037829
X034058Y037573
X033654Y046392
X032850Y047497
M30
