M48
INCH
VER,1
FMAT,2
T01C0.002
T02C0.01
%
T01
X017375Y032297
X017513Y032849
X017769Y032986
X022641Y032484
X023725Y030919
X023418Y030565
X025269Y031057
X025977Y031628
X026824Y032770
X026578Y033479
X026391Y033656
X026036Y033223
X027237Y033479
X027690Y033341
X028221Y032918
X028497Y033233
X028418Y031195
X028241Y030506
X026666Y030270
X031461Y032580
X031509Y033420
X033300Y033065
X033281Y032531
X034068Y032580
X034068Y031313
X033359Y031018
X032119Y030841
X032119Y030329
X035682Y032573
X036076Y032731
X036076Y033065
X033694Y038075
X033251Y039788
X033470Y044382
X032832Y044939
X031381Y044670
X030131Y044128
X029284Y044020
X028595Y044709
X028310Y044679
X027895Y044200
X027680Y044433
X026469Y044630
X026164Y044355
X025751Y044414
X025839Y044030
X025771Y045083
X025131Y044955
X024511Y044955
X024101Y045762
X023763Y046264
X023782Y046914
X024324Y046933
X024491Y046323
X025362Y045841
X026666Y047563
X028782Y045880
X030377Y046471
X032470Y047376
X028625Y039984
X028713Y038026
X027129Y037524
X026479Y037553
X026066Y038321
X025908Y038616
X025505Y038971
X025042Y038784
X024521Y039168
X024028Y039886
X025160Y041087
X025839Y041038
X026548Y040260
X026686Y038981
X021863Y041057
X022658Y047422
X023723Y047583
T02
X014205Y009480
X041735Y009480
X041735Y062160
X014205Y062160
M30
