M48
INCH
VER,1
FMAT,2
T01C0.003
%
T01
X021863Y031205
X023418Y032209
X024314Y032484
X023812Y033695
X022788Y033705
X022375Y033065
X022139Y033065
X021883Y033725
X022788Y037544
X023241Y037544
X026597Y038055
X028211Y038026
X028458Y038026
X028192Y038479
X028389Y038823
X028841Y039197
X029137Y039443
X029363Y038813
X029225Y037780
X030072Y037918
X030465Y037770
X030859Y037573
X031937Y038813
X032129Y039010
X032129Y039404
X032267Y039797
X032591Y040162
X032267Y041028
X031450Y040792
X031204Y041038
X030584Y041019
X030160Y040664
X029875Y040664
X030367Y040457
X029284Y040693
X029048Y041077
X028654Y041057
X027926Y040890
X029353Y044345
X029501Y044660
X029570Y045201
X030328Y044857
X030643Y046254
X031263Y046677
X028704Y047445
X028221Y047258
X027395Y046953
X026745Y046933
X026272Y046933
X026893Y045614
X027267Y045132
X028182Y045024
X022286Y044935
X031509Y039591
X033162Y039197
X033123Y038075
X033335Y040720
X033969Y047475
X026568Y032770
X026312Y032770
X026036Y032770
X025771Y033046
M30
