G04 CAM350/DFMSTREAM V11.0 (Build 715) Date:  Fri Nov 02 14:57:23 2018 *
G04 Database: W:\PC Boards\VALTRONIC TECHNOLOGIES\VTC22567\CHECKPLOTS\MODIFIED.cam *
G04 Layer 18: Border *
%FSLAX25Y25*%
%MOIN*%
%SFA1.000B1.000*%

%MIA0B0*%
%IPPOS*%
%ADD10C,0.01000*%
%ADD11C,0.00098*%
%ADD18C,0.03937*%
%ADD38C,0.00100*%
%ADD156R,0.00011X0.00011*%
%ADD157R,0.00012X0.00012*%
%LNBorder*%
%LPD*%
G54D11*
X346150Y296400D03*
G54D18*
X179280Y149512D03*
X380067D03*
Y566835D03*
X179280D03*
G54D156*
X427350Y94800D03*
X132050D03*
X427350Y621600D03*
X132050D03*
G54D157*
X407350Y94800D03*
X152050D03*
X407350Y621600D03*
X152050D03*
X172050Y94800D03*
Y621600D03*
X387350Y94800D03*
Y621600D03*
G54D10*
X167002Y341909D02*
G75*
G03X165502Y340409J-1500D01*
X185187Y340413D02*
G03X183691Y341909I-1496D01*
X167495Y129827D02*
G03X167495Y129827I-7900D01*
X407652D02*
G03X407652Y129827I-7900D01*
X203276Y151383D02*
G03X212650Y142009I9374D01*
X367741Y289026D02*
G03X377115Y298400J9374D01*
X407652Y586520D02*
G03X407652Y586520I-7900D01*
X157628Y298409D02*
G03X167002Y289035I9374D01*
X190997Y346280D02*
G03X183691Y349783I-7306J-5867D01*
X377115Y340400D02*
G03X367741Y349774I-9374D01*
X167495Y586520D02*
G03X167495Y586520I-7900D01*
X167002Y349783D02*
G03X157628Y340409J-9374D01*
X344650Y142009D02*
G03X354024Y151383J9374D01*
X183691Y289035D02*
G03X190992Y292532J9370D01*
X185187Y339144D02*
G03X185972Y338407I786J50D01*
X346150Y296400D02*
G01X345650D01*
X185187Y339144D02*
G01Y340413D01*
X327902Y142009D02*
G01Y149883D01*
X231445Y142009D02*
G01Y149883D01*
X183691Y341909D02*
G01X167002D01*
X185187Y298405D02*
G01Y340413D01*
X349556Y298400D02*
G01Y340400D01*
X132036Y102268D02*
G01Y614080D01*
X351524Y574339D02*
G01X207823D01*
Y346276D02*
G01X190997Y346280D01*
X157628Y298409D02*
G01Y340409D01*
X205244Y232560D02*
G01Y256182D01*
X203276Y151383D02*
G01Y232560D01*
X344650Y142009D02*
G01X212650D01*
X377115Y298400D02*
G01Y340400D01*
X367741Y289026D02*
G01X354024D01*
X427311Y102268D02*
G01X132036D01*
X207823Y346276D02*
G01Y574339D01*
X205244Y232560D02*
G01X203276D01*
X351524Y349774D02*
G01Y574339D01*
X427311Y614080D02*
G01X132036D01*
X203276Y292529D02*
G01X190992Y292531D01*
X203276Y256182D02*
G01Y292529D01*
X205244Y256182D02*
G01X203276D01*
X183691Y349783D02*
G01X167002D01*
X354024Y151383D02*
G01Y289026D01*
X183691Y289035D02*
G01X167002D01*
X367741Y349774D02*
G01X351524D01*
X427311Y102268D02*
G01Y614080D01*
X213697Y338400D02*
G01X185972Y338407D01*
X318059Y142009D02*
G01Y149883D01*
X241288Y142009D02*
G01Y149883D01*
X165500Y324329D02*
G01X157628D01*
X165500D02*
G01Y340409D01*
X215697Y388108D02*
G01X207823D01*
X215697Y397951D02*
G01X207823D01*
X318059Y566465D02*
G01Y574339D01*
X327902Y566465D02*
G01Y574339D01*
X351524Y397951D02*
G01X343650D01*
X351524Y388108D02*
G01X343650D01*
X215697Y462911D02*
G01X207823D01*
X215697Y453069D02*
G01X207823D01*
X377115Y324329D02*
G01X369241D01*
X377115Y314486D02*
G01X369241D01*
X351524Y453069D02*
G01X343650D01*
X351524Y462911D02*
G01X343650D01*
X241288Y566465D02*
G01Y574339D01*
X231445Y566465D02*
G01Y574339D01*
X185187Y340413D02*
G03X183691Y341909I-1496D01*
Y296909D02*
G03X185187Y298405J1496D01*
X167002Y341909D02*
G03X165502Y340409J-1500D01*
Y298409D02*
G03X167002Y296909I1500D01*
X349556Y298400D02*
G03X351056Y296900I1500D01*
X367741D02*
G03X369241Y298400J1500D01*
Y340400D02*
G03X367741Y341900I-1500D01*
X351056D02*
G03X349556Y340400J-1500D01*
X343650Y538304D02*
G01X215697D01*
X343650Y437321D02*
G01X215697D01*
X343650Y478659D02*
G01X215697D01*
X343650Y298738D02*
G01X215697D01*
X343650D02*
G01Y340077D01*
X215697Y298738D02*
G01Y340077D01*
Y372360D02*
G01Y413699D01*
X183691Y341909D02*
G01X167002D01*
X185187Y298405D02*
G01Y340413D01*
X183691Y296909D02*
G01X167002D01*
X367741Y296900D02*
G01X351056D01*
X369241Y298400D02*
G01Y340400D01*
X367741Y341900D02*
G01X351056D01*
X349556Y298400D02*
G01Y340400D01*
X343650Y340077D02*
G01Y372360D01*
X213697Y338400D02*
G03X215697Y340077I-23J2059D01*
X343650Y413699D02*
G01X215697D01*
Y437321*
Y478659*
Y538304*
Y566465*
X343650*
Y538304*
Y566465*
X215697*
Y538304*
X343650*
Y478659*
Y437321*
Y478659*
X215697*
Y437321*
X343650*
Y413699*
Y372360*
X215697*
Y413699*
X343650*
Y372360*
X215697*
Y340077*
X343650*
Y298738*
X215697*
Y340077*
X343650*
X343665Y340006*
X343682Y339936*
X343702Y339867*
X343724Y339798*
X343748Y339730*
X343775Y339664*
X343804Y339598*
X343835Y339533*
X343869Y339469*
X343905Y339407*
X343943Y339345*
X343983Y339285*
X344025Y339227*
X344070Y339170*
X344116Y339115*
X344164Y339061*
X344214Y339009*
X344265Y338959*
X344319Y338910*
X344374Y338864*
X344431Y338819*
X344489Y338777*
X344548Y338736*
X344609Y338698*
X344672Y338662*
X344735Y338628*
X344800Y338596*
X344866Y338566*
X344932Y338539*
X345000Y338514*
X345068Y338492*
X345138Y338472*
X345208Y338454*
X345278Y338439*
X345349Y338426*
X345420Y338416*
X345492Y338408*
X345564Y338403*
X345636Y338400*
X345650*
X347556*
X347625Y338401*
X347695Y338405*
X347765Y338411*
X347834Y338419*
X347903Y338430*
X347971Y338444*
X348039Y338459*
X348107Y338477*
X348174Y338498*
X348240Y338521*
X348305Y338546*
X348369Y338573*
X348432Y338602*
X348494Y338634*
X348556Y338668*
X348615Y338704*
X348674Y338742*
X348731Y338782*
X348787Y338824*
X348841Y338868*
X348894Y338914*
X348945Y338961*
X348994Y339011*
X349042Y339062*
X349088Y339114*
X349132Y339169*
X349174Y339224*
X349214Y339282*
X349252Y339340*
X349288Y339400*
X349321Y339461*
X349353Y339523*
X349383Y339587*
X349410Y339651*
X349435Y339716*
X349458Y339782*
X349478Y339849*
X349496Y339916*
X349512Y339984*
X349525Y340053*
X349536Y340122*
X349545Y340191*
X349551Y340260*
X349554Y340330*
X349556Y340400*
Y340452*
X349559Y340505*
X349564Y340557*
X349570Y340609*
X349578Y340660*
X349588Y340712*
X349600Y340763*
X349614Y340813*
X349629Y340864*
X349646Y340913*
X349665Y340962*
X349685Y341010*
X349707Y341058*
X349731Y341104*
X349756Y341150*
X349783Y341195*
X349812Y341239*
X349842Y341282*
X349873Y341323*
X349906Y341364*
X349941Y341404*
X349976Y341442*
X350014Y341479*
X350052Y341515*
X350091Y341549*
X350132Y341582*
X350174Y341614*
X350217Y341644*
X350261Y341672*
X350306Y341699*
X350351Y341724*
X350398Y341748*
X350445Y341770*
X350494Y341791*
X350542Y341810*
X350592Y341827*
X350642Y341842*
X350693Y341855*
X350744Y341867*
X350795Y341877*
X350847Y341885*
X350899Y341892*
X350951Y341896*
X351003Y341899*
X351056Y341900*
X367741*
X367793Y341899*
X367845Y341896*
X367897Y341892*
X367949Y341885*
X368001Y341877*
X368052Y341867*
X368103Y341855*
X368154Y341842*
X368204Y341827*
X368254Y341810*
X368302Y341791*
X368351Y341770*
X368398Y341748*
X368445Y341724*
X368491Y341699*
X368535Y341672*
X368579Y341644*
X368622Y341614*
X368664Y341582*
X368705Y341549*
X368744Y341515*
X368783Y341479*
X368820Y341442*
X368855Y341404*
X368890Y341364*
X368923Y341323*
X368954Y341282*
X368984Y341239*
X369013Y341195*
X369040Y341150*
X369065Y341104*
X369089Y341058*
X369111Y341010*
X369131Y340962*
X369150Y340913*
X369167Y340864*
X369182Y340813*
X369196Y340763*
X369208Y340712*
X369218Y340660*
X369226Y340609*
X369232Y340557*
X369237Y340505*
X369240Y340452*
X369241Y340400*
Y298400*
X369240Y298348*
X369237Y298295*
X369232Y298243*
X369226Y298191*
X369218Y298140*
X369208Y298088*
X369196Y298037*
X369182Y297987*
X369167Y297936*
X369150Y297887*
X369131Y297838*
X369111Y297790*
X369089Y297742*
X369065Y297696*
X369040Y297650*
X369013Y297605*
X368984Y297561*
X368954Y297518*
X368923Y297477*
X368890Y297436*
X368855Y297396*
X368820Y297358*
X368783Y297321*
X368744Y297285*
X368705Y297251*
X368664Y297218*
X368622Y297186*
X368579Y297156*
X368535Y297128*
X368491Y297101*
X368445Y297076*
X368398Y297052*
X368351Y297030*
X368302Y297009*
X368254Y296990*
X368204Y296973*
X368154Y296958*
X368103Y296945*
X368052Y296933*
X368001Y296923*
X367949Y296915*
X367897Y296908*
X367845Y296904*
X367793Y296901*
X367741Y296900*
X351056*
X351003Y296901*
X350951Y296904*
X350899Y296908*
X350847Y296915*
X350795Y296923*
X350744Y296933*
X350693Y296945*
X350642Y296958*
X350592Y296973*
X350542Y296990*
X350494Y297009*
X350445Y297030*
X350398Y297052*
X350351Y297076*
X350306Y297101*
X350261Y297128*
X350217Y297156*
X350174Y297186*
X350132Y297218*
X350091Y297251*
X350052Y297285*
X350014Y297321*
X349976Y297358*
X349941Y297396*
X349906Y297436*
X349873Y297477*
X349842Y297518*
X349812Y297561*
X349783Y297605*
X349756Y297650*
X349731Y297696*
X349707Y297742*
X349685Y297790*
X349665Y297838*
X349646Y297887*
X349629Y297936*
X349614Y297987*
X349600Y298037*
X349588Y298088*
X349578Y298140*
X349570Y298191*
X349564Y298243*
X349559Y298295*
X349556Y298348*
Y298400*
X349554Y298470*
X349551Y298540*
X349545Y298609*
X349536Y298678*
X349525Y298747*
X349512Y298816*
X349496Y298884*
X349478Y298951*
X349458Y299018*
X349435Y299084*
X349410Y299149*
X349383Y299213*
X349353Y299277*
X349321Y299339*
X349288Y299400*
X349252Y299460*
X349214Y299518*
X349174Y299576*
X349132Y299631*
X349088Y299686*
X349042Y299738*
X348994Y299789*
X348945Y299839*
X348894Y299886*
X348841Y299932*
X348787Y299976*
X348731Y300018*
X348674Y300058*
X348615Y300096*
X348556Y300132*
X348494Y300166*
X348432Y300198*
X348369Y300227*
X348305Y300254*
X348240Y300279*
X348174Y300302*
X348107Y300323*
X348039Y300341*
X347971Y300356*
X347903Y300370*
X347834Y300381*
X347765Y300389*
X347695Y300395*
X347625Y300399*
X347556Y300400*
X345650*
X345580Y300399*
X345510Y300395*
X345441Y300389*
X345372Y300381*
X345303Y300370*
X345234Y300356*
X345166Y300341*
X345099Y300323*
X345032Y300302*
X344966Y300279*
X344901Y300254*
X344837Y300227*
X344773Y300198*
X344711Y300166*
X344650Y300132*
X344590Y300096*
X344532Y300058*
X344474Y300018*
X344419Y299976*
X344364Y299932*
X344312Y299886*
X344261Y299839*
X344211Y299789*
X344164Y299738*
X344118Y299686*
X344074Y299631*
X344032Y299576*
X343992Y299518*
X343954Y299460*
X343918Y299400*
X343884Y299339*
X343852Y299277*
X343823Y299213*
X343796Y299149*
X343771Y299084*
X343748Y299018*
X343727Y298951*
X343709Y298884*
X343694Y298816*
X343680Y298747*
X343669Y298678*
X343661Y298609*
X343655Y298540*
X343651Y298470*
X343650Y298400*
X343651Y298330*
X343655Y298260*
X343661Y298191*
X343669Y298122*
X343680Y298053*
X343694Y297984*
X343709Y297916*
X343727Y297849*
X343748Y297782*
X343771Y297716*
X343796Y297651*
X343823Y297587*
X343852Y297523*
X343884Y297461*
X343918Y297400*
X343954Y297340*
X343992Y297282*
X344032Y297224*
X344074Y297169*
X344118Y297114*
X344164Y297062*
X344211Y297011*
X344261Y296961*
X344312Y296914*
X344364Y296868*
X344419Y296824*
X344474Y296782*
X344532Y296742*
X344590Y296704*
X344650Y296668*
X344711Y296634*
X344773Y296602*
X344837Y296573*
X344901Y296546*
X344966Y296521*
X345032Y296498*
X345099Y296477*
X345166Y296459*
X345234Y296444*
X345303Y296430*
X345372Y296419*
X345441Y296411*
X345510Y296405*
X345580Y296401*
X345650Y296400*
X346150*
Y151383*
X346149Y151330*
X346146Y151278*
X346142Y151226*
X346135Y151174*
X346127Y151122*
X346117Y151071*
X346105Y151020*
X346092Y150969*
X346077Y150919*
X346060Y150870*
X346041Y150821*
X346020Y150773*
X345998Y150725*
X345974Y150678*
X345949Y150633*
X345922Y150588*
X345894Y150544*
X345864Y150501*
X345832Y150459*
X345799Y150418*
X345765Y150379*
X345729Y150341*
X345692Y150304*
X345654Y150268*
X345614Y150234*
X345573Y150201*
X345532Y150169*
X345489Y150139*
X345445Y150111*
X345400Y150084*
X345354Y150058*
X345308Y150034*
X345260Y150012*
X345212Y149992*
X345163Y149973*
X345114Y149956*
X345063Y149941*
X345013Y149927*
X344962Y149915*
X344910Y149905*
X344859Y149897*
X344807Y149891*
X344755Y149886*
X344702Y149884*
X344650Y149883*
X212650*
X212598Y149884*
X212545Y149886*
X212493Y149891*
X212441Y149897*
X212390Y149905*
X212338Y149915*
X212287Y149927*
X212237Y149941*
X212186Y149956*
X212137Y149973*
X212088Y149992*
X212040Y150012*
X211992Y150034*
X211946Y150058*
X211900Y150084*
X211855Y150111*
X211811Y150139*
X211768Y150169*
X211727Y150201*
X211686Y150234*
X211646Y150268*
X211608Y150304*
X211571Y150341*
X211535Y150379*
X211501Y150418*
X211468Y150459*
X211436Y150501*
X211406Y150544*
X211378Y150588*
X211351Y150633*
X211326Y150678*
X211302Y150725*
X211280Y150773*
X211259Y150821*
X211240Y150870*
X211223Y150919*
X211208Y150969*
X211195Y151020*
X211183Y151071*
X211173Y151122*
X211165Y151174*
X211158Y151226*
X211154Y151278*
X211151Y151330*
X211150Y151383*
Y224686*
X212331*
X212359Y224687*
X212386Y224688*
X212413Y224691*
X212441Y224694*
X212468Y224698*
X212495Y224703*
X212522Y224710*
X212548Y224717*
X212574Y224725*
X212600Y224734*
X212626Y224744*
X212651Y224754*
X212676Y224766*
X212701Y224778*
X212725Y224792*
X212748Y224806*
X212771Y224821*
X212794Y224837*
X212816Y224853*
X212837Y224870*
X212858Y224888*
X212878Y224907*
X212898Y224927*
X212916Y224947*
X212934Y224967*
X212952Y224989*
X212968Y225011*
X212984Y225033*
X212999Y225056*
X213013Y225080*
X213026Y225104*
X213039Y225128*
X213050Y225153*
X213061Y225179*
X213071Y225204*
X213080Y225230*
X213088Y225257*
X213095Y225283*
X213101Y225310*
X213107Y225337*
X213111Y225364*
X213114Y225391*
X213117Y225419*
X213118Y225446*
X213119Y225473*
Y263269*
X213118Y263296*
X213117Y263324*
X213114Y263351*
X213111Y263378*
X213107Y263406*
X213101Y263433*
X213095Y263459*
X213088Y263486*
X213080Y263512*
X213071Y263538*
X213061Y263564*
X213050Y263589*
X213039Y263614*
X213026Y263639*
X213013Y263663*
X212999Y263686*
X212984Y263709*
X212968Y263732*
X212952Y263754*
X212934Y263775*
X212916Y263796*
X212898Y263816*
X212878Y263835*
X212858Y263854*
X212837Y263872*
X212816Y263889*
X212794Y263906*
X212771Y263922*
X212748Y263937*
X212725Y263951*
X212701Y263964*
X212676Y263977*
X212651Y263988*
X212626Y263999*
X212600Y264009*
X212574Y264018*
X212548Y264026*
X212522Y264033*
X212495Y264039*
X212468Y264044*
X212441Y264049*
X212413Y264052*
X212386Y264054*
X212359Y264056*
X212331*
X211150*
Y296400*
X213697*
X213767Y296401*
X213837Y296405*
X213906Y296411*
X213976Y296419*
X214045Y296430*
X214113Y296444*
X214181Y296459*
X214249Y296477*
X214315Y296498*
X214381Y296521*
X214446Y296546*
X214511Y296573*
X214574Y296602*
X214636Y296634*
X214697Y296668*
X214757Y296704*
X214816Y296742*
X214873Y296782*
X214929Y296824*
X214983Y296868*
X215036Y296914*
X215087Y296961*
X215136Y297011*
X215184Y297062*
X215229Y297114*
X215273Y297169*
X215315Y297224*
X215355Y297282*
X215393Y297340*
X215429Y297400*
X215463Y297461*
X215495Y297523*
X215524Y297587*
X215552Y297651*
X215577Y297716*
X215599Y297782*
X215620Y297849*
X215638Y297916*
X215654Y297984*
X215667Y298053*
X215678Y298122*
X215686Y298191*
X215692Y298260*
X215696Y298330*
X215697Y298400*
X215696Y298470*
X215692Y298540*
X215686Y298609*
X215678Y298678*
X215667Y298747*
X215654Y298816*
X215638Y298884*
X215620Y298951*
X215599Y299018*
X215577Y299084*
X215552Y299149*
X215524Y299213*
X215495Y299277*
X215463Y299339*
X215429Y299400*
X215393Y299460*
X215355Y299518*
X215315Y299576*
X215273Y299631*
X215229Y299686*
X215184Y299738*
X215136Y299789*
X215087Y299839*
X215036Y299886*
X214983Y299932*
X214929Y299976*
X214873Y300018*
X214816Y300058*
X214757Y300096*
X214697Y300132*
X214636Y300166*
X214574Y300198*
X214511Y300227*
X214446Y300254*
X214381Y300279*
X214315Y300302*
X214249Y300323*
X214181Y300341*
X214113Y300356*
X214045Y300370*
X213976Y300381*
X213906Y300389*
X213837Y300395*
X213767Y300399*
X213697Y300400*
X185973Y300407*
X185945*
X185918Y300405*
X185891Y300403*
X185863Y300399*
X185836Y300395*
X185809Y300390*
X185782Y300384*
X185756Y300377*
X185730Y300369*
X185704Y300360*
X185678Y300350*
X185653Y300339*
X185628Y300327*
X185603Y300315*
X185579Y300302*
X185556Y300287*
X185533Y300272*
X185510Y300257*
X185488Y300240*
X185467Y300223*
X185446Y300205*
X185426Y300186*
X185406Y300167*
X185388Y300147*
X185370Y300126*
X185352Y300104*
X185336Y300083*
X185320Y300060*
X185305Y300037*
X185291Y300013*
X185278Y299989*
X185265Y299965*
X185254Y299940*
X185243Y299915*
X185233Y299889*
X185224Y299863*
X185216Y299837*
X185209Y299810*
X185203Y299783*
X185197Y299756*
X185193Y299729*
X185190Y299702*
X185187Y299675*
Y299669*
Y299669*
Y298405*
X185186Y298353*
X185183Y298301*
X185179Y298249*
X185172Y298197*
X185164Y298145*
X185154Y298094*
X185143Y298043*
X185129Y297993*
X185114Y297943*
X185097Y297893*
X185078Y297845*
X185058Y297797*
X185036Y297749*
X185012Y297703*
X184987Y297657*
X184960Y297612*
X184931Y297569*
X184901Y297526*
X184870Y297484*
X184837Y297443*
X184803Y297404*
X184767Y297366*
X184730Y297329*
X184692Y297293*
X184653Y297259*
X184612Y297226*
X184570Y297195*
X184528Y297165*
X184484Y297136*
X184439Y297109*
X184393Y297084*
X184347Y297060*
X184299Y297038*
X184251Y297018*
X184203Y296999*
X184153Y296982*
X184103Y296967*
X184053Y296953*
X184002Y296942*
X183951Y296932*
X183899Y296924*
X183847Y296917*
X183795Y296913*
X183743Y296910*
X183691Y296909*
X183685Y296900*
X167000*
X166948Y296901*
X166896Y296904*
X166844Y296908*
X166792Y296915*
X166740Y296923*
X166689Y296933*
X166638Y296945*
X166587Y296958*
X166537Y296973*
X166487Y296990*
X166438Y297009*
X166390Y297030*
X166343Y297052*
X166296Y297076*
X166250Y297101*
X166206Y297128*
X166162Y297156*
X166119Y297186*
X166077Y297218*
X166036Y297251*
X165997Y297285*
X165958Y297321*
X165921Y297358*
X165886Y297396*
X165851Y297436*
X165818Y297477*
X165787Y297518*
X165757Y297561*
X165728Y297605*
X165701Y297650*
X165676Y297696*
X165652Y297742*
X165630Y297790*
X165610Y297838*
X165591Y297887*
X165574Y297936*
X165559Y297987*
X165545Y298037*
X165533Y298088*
X165523Y298140*
X165515Y298191*
X165509Y298243*
X165504Y298295*
X165501Y298348*
X165500Y298400*
Y314486*
X157628*
G01X171328Y307916D02*
X177890D01*
X171328D02*
Y310729D01*
X171640Y311666D01*
X171953Y311979D01*
X172578Y312291D01*
X173203D01*
X173828Y311979D01*
X174140Y311666D01*
X174453Y310729D01*
Y307916D01*
Y310104D02*
X177890Y312291D01*
X171328Y314479D02*
X177890D01*
X172890Y321354D02*
X172265Y321041D01*
X171640Y320416D01*
X171328Y319791D01*
Y318541D01*
X171640Y317916D01*
X172265Y317291D01*
X172890Y316979D01*
X173828Y316666D01*
X175390D01*
X176328Y316979D01*
X176953Y317291D01*
X177578Y317916D01*
X177890Y318541D01*
Y319791D01*
X177578Y320416D01*
X176953Y321041D01*
X176328Y321354D01*
X175390D01*
Y319791D02*
Y321354D01*
X171328Y323541D02*
X177890D01*
X171328Y326041D02*
X177890D01*
X171328D02*
Y328229D01*
X171640Y329166D01*
X172265Y329791D01*
X172890Y330104D01*
X173828Y330416D01*
X175390D01*
X176328Y330104D01*
X176953Y329791D01*
X177578Y329166D01*
X177890Y328229D01*
Y326041D01*
G01X276428Y307916D02*
X282990D01*
X276428D02*
Y310729D01*
X276740Y311666D01*
X277053Y311979D01*
X277678Y312291D01*
X278303D01*
X278928Y311979D01*
X279240Y311666D01*
X279553Y310729D01*
Y307916D01*
Y310104D02*
X282990Y312291D01*
X276428Y314479D02*
X282990D01*
X277990Y321354D02*
X277365Y321041D01*
X276740Y320416D01*
X276428Y319791D01*
Y318541D01*
X276740Y317916D01*
X277365Y317291D01*
X277990Y316979D01*
X278928Y316666D01*
X280490D01*
X281428Y316979D01*
X282053Y317291D01*
X282678Y317916D01*
X282990Y318541D01*
Y319791D01*
X282678Y320416D01*
X282053Y321041D01*
X281428Y321354D01*
X280490D01*
Y319791D02*
Y321354D01*
X276428Y323541D02*
X282990D01*
X276428Y326041D02*
X282990D01*
X276428D02*
Y328229D01*
X276740Y329166D01*
X277365Y329791D01*
X277990Y330104D01*
X278928Y330416D01*
X280490D01*
X281428Y330104D01*
X282053Y329791D01*
X282678Y329166D01*
X282990Y328229D01*
Y326041D01*
G01X276428Y381376D02*
X282990D01*
X276428D02*
Y384189D01*
X276740Y385126D01*
X277053Y385439D01*
X277678Y385751D01*
X278303D01*
X278928Y385439D01*
X279240Y385126D01*
X279553Y384189D01*
Y381376D01*
Y383564D02*
X282990Y385751D01*
X276428Y387939D02*
X282990D01*
X277990Y394814D02*
X277365Y394501D01*
X276740Y393876D01*
X276428Y393251D01*
Y392001D01*
X276740Y391376D01*
X277365Y390751D01*
X277990Y390439D01*
X278928Y390126D01*
X280490D01*
X281428Y390439D01*
X282053Y390751D01*
X282678Y391376D01*
X282990Y392001D01*
Y393251D01*
X282678Y393876D01*
X282053Y394501D01*
X281428Y394814D01*
X280490D01*
Y393251D02*
Y394814D01*
X276428Y397001D02*
X282990D01*
X276428Y399501D02*
X282990D01*
X276428D02*
Y401689D01*
X276740Y402626D01*
X277365Y403251D01*
X277990Y403564D01*
X278928Y403876D01*
X280490D01*
X281428Y403564D01*
X282053Y403251D01*
X282678Y402626D01*
X282990Y401689D01*
Y399501D01*
G01X276428Y445986D02*
X282990D01*
X276428D02*
Y448799D01*
X276740Y449736D01*
X277053Y450049D01*
X277678Y450361D01*
X278303D01*
X278928Y450049D01*
X279240Y449736D01*
X279553Y448799D01*
Y445986D01*
Y448174D02*
X282990Y450361D01*
X276428Y452549D02*
X282990D01*
X277990Y459424D02*
X277365Y459111D01*
X276740Y458486D01*
X276428Y457861D01*
Y456611D01*
X276740Y455986D01*
X277365Y455361D01*
X277990Y455049D01*
X278928Y454736D01*
X280490D01*
X281428Y455049D01*
X282053Y455361D01*
X282678Y455986D01*
X282990Y456611D01*
Y457861D01*
X282678Y458486D01*
X282053Y459111D01*
X281428Y459424D01*
X280490D01*
Y457861D02*
Y459424D01*
X276428Y461611D02*
X282990D01*
X276428Y464111D02*
X282990D01*
X276428D02*
Y466299D01*
X276740Y467236D01*
X277365Y467861D01*
X277990Y468174D01*
X278928Y468486D01*
X280490D01*
X281428Y468174D01*
X282053Y467861D01*
X282678Y467236D01*
X282990Y466299D01*
Y464111D01*
G01X276428Y541116D02*
X282990D01*
X276428D02*
Y543929D01*
X276740Y544866D01*
X277053Y545179D01*
X277678Y545491D01*
X278303D01*
X278928Y545179D01*
X279240Y544866D01*
X279553Y543929D01*
Y541116D01*
Y543304D02*
X282990Y545491D01*
X276428Y547679D02*
X282990D01*
X277990Y554554D02*
X277365Y554241D01*
X276740Y553616D01*
X276428Y552991D01*
Y551741D01*
X276740Y551116D01*
X277365Y550491D01*
X277990Y550179D01*
X278928Y549866D01*
X280490D01*
X281428Y550179D01*
X282053Y550491D01*
X282678Y551116D01*
X282990Y551741D01*
Y552991D01*
X282678Y553616D01*
X282053Y554241D01*
X281428Y554554D01*
X280490D01*
Y552991D02*
Y554554D01*
X276428Y556741D02*
X282990D01*
X276428Y559241D02*
X282990D01*
X276428D02*
Y561429D01*
X276740Y562366D01*
X277365Y562991D01*
X277990Y563304D01*
X278928Y563616D01*
X280490D01*
X281428Y563304D01*
X282053Y562991D01*
X282678Y562366D01*
X282990Y561429D01*
Y559241D01*
G54D38*
X429850Y94800D02*
G03X429850Y94800I-2500D01*
X134550D02*
G03X134550Y94800I-2500D01*
X429850Y621600D02*
G03X429850Y621600I-2500D01*
X134550D02*
G03X134550Y621600I-2500D01*
X409850Y92300D02*
G01Y97300D01*
X404850*
Y92300*
X409850*
X154550D02*
G01Y97300D01*
X149550*
Y92300*
X154550*
X409850Y619100D02*
G01Y624100D01*
X404850*
Y619100*
X409850*
X154550D02*
G01Y624100D01*
X149550*
Y619100*
X154550*
X174550Y92300D02*
G01Y97300D01*
X169550*
Y92300*
X174550*
Y619100D02*
G01Y624100D01*
X169550*
Y619100*
X174550*
X389850Y92300D02*
G01Y97300D01*
X384850*
Y92300*
X389850*
Y619100D02*
G01Y624100D01*
X384850*
Y619100*
X389850*
G54D10*
G01X355830Y307916D02*
X362393D01*
X355830D02*
Y310729D01*
X356143Y311666D01*
X356455Y311979D01*
X357080Y312291D01*
X357705D01*
X358330Y311979D01*
X358643Y311666D01*
X358955Y310729D01*
Y307916D01*
Y310104D02*
X362393Y312291D01*
X355830Y314479D02*
X362393D01*
X357393Y321354D02*
X356768Y321041D01*
X356143Y320416D01*
X355830Y319791D01*
Y318541D01*
X356143Y317916D01*
X356768Y317291D01*
X357393Y316979D01*
X358330Y316666D01*
X359893D01*
X360830Y316979D01*
X361455Y317291D01*
X362080Y317916D01*
X362393Y318541D01*
Y319791D01*
X362080Y320416D01*
X361455Y321041D01*
X360830Y321354D01*
X359893D01*
Y319791D02*
Y321354D01*
X355830Y323541D02*
X362393D01*
X355830Y326041D02*
X362393D01*
X355830D02*
Y328229D01*
X356143Y329166D01*
X356768Y329791D01*
X357393Y330104D01*
X358330Y330416D01*
X359893D01*
X360830Y330104D01*
X361455Y329791D01*
X362080Y329166D01*
X362393Y328229D01*
Y326041D01*
M02*
